<?xml version="1.0" encoding="UTF-8"?>
<svg id="Layer_1" data-name="Layer 1" xmlns="http://www.w3.org/2000/svg" xmlns:xlink="http://www.w3.org/1999/xlink" viewBox="0 0 409 429.1">
  <defs>
    <style>
      .cls-1 {
        fill: url(#linear-gradient);
      }

      .cls-1, .cls-2 {
        stroke-width: 0px;
      }

      .cls-2 {
        fill: #c49a6c;
      }
    </style>
    <linearGradient id="linear-gradient" x1="195" y1="212.54" x2="213" y2="212.54" gradientTransform="translate(0 .01)" gradientUnits="userSpaceOnUse">
      <stop offset="0" stop-color="#c19068"/>
      <stop offset=".2" stop-color="#e8cdaf"/>
      <stop offset=".4" stop-color="#d3b08d"/>
      <stop offset=".7" stop-color="#b8895e"/>
      <stop offset=".8" stop-color="#e8d1b6"/>
      <stop offset="1" stop-color="#b08258"/>
    </linearGradient>
  </defs>
  <path class="cls-1" d="M204,0h0c5,0,9,4,9,9v407.1c0,5-4,9-9,9h0c-5,0-9-4-9-9V9c0-5,4-9,9-9Z"/>
  <path class="cls-2" d="M12,405.1h385c6.6,0,12,5.4,12,12h0c0,6.6-5.4,12-12,12H12c-6.6,0-12-5.4-12-12h0c0-6.6,5.4-12,12-12Z"/>
</svg>